<mxfile host="65bd71144e">
    <diagram id="HIzjBaC0xF_liW3ieUTu" name="Page-1">
        <mxGraphModel dx="1329" dy="2009" grid="1" gridSize="10" guides="1" tooltips="1" connect="1" arrows="1" fold="1" page="1" pageScale="1" pageWidth="850" pageHeight="1100" math="0" shadow="0">
            <root>
                <mxCell id="0"/>
                <mxCell id="1" parent="0"/>
                <mxCell id="3" value="" style="rounded=0;whiteSpace=wrap;html=1;fillColor=#f5f5f5;strokeColor=#666666;gradientColor=#b3b3b3;" parent="1" vertex="1">
                    <mxGeometry x="230" y="-20" width="560" height="880" as="geometry"/>
                </mxCell>
                <mxCell id="6" style="edgeStyle=none;html=1;exitX=0.5;exitY=1;exitDx=0;exitDy=0;entryX=0.5;entryY=0;entryDx=0;entryDy=0;fontFamily=Helvetica;fontSize=20;fontColor=#000000;strokeColor=#000000;strokeWidth=3;endArrow=none;endFill=0;rounded=0;" parent="1" source="4" target="5" edge="1">
                    <mxGeometry relative="1" as="geometry"/>
                </mxCell>
                <mxCell id="4" value="Начало" style="ellipse;whiteSpace=wrap;html=1;fillColor=#f5f5f5;gradientColor=none;strokeColor=#000000;strokeWidth=3;fontColor=#000000;fontSize=20;" parent="1" vertex="1">
                    <mxGeometry x="360" y="40" width="120" height="80" as="geometry"/>
                </mxCell>
                <mxCell id="11" style="edgeStyle=none;shape=connector;rounded=0;html=1;exitX=0.5;exitY=1;exitDx=0;exitDy=0;entryX=0.5;entryY=0;entryDx=0;entryDy=0;labelBackgroundColor=default;strokeColor=#000000;strokeWidth=3;fontFamily=Helvetica;fontSize=20;fontColor=#000000;endArrow=none;endFill=0;" parent="1" source="5" edge="1">
                    <mxGeometry relative="1" as="geometry">
                        <mxPoint x="420" y="310" as="targetPoint"/>
                    </mxGeometry>
                </mxCell>
                <mxCell id="88" style="edgeStyle=none;shape=connector;rounded=0;html=1;exitX=1;exitY=0.5;exitDx=0;exitDy=0;entryX=0.5;entryY=0;entryDx=0;entryDy=0;labelBackgroundColor=default;strokeColor=#000000;strokeWidth=3;fontFamily=Helvetica;fontSize=20;fontColor=#000000;endArrow=none;endFill=0;" parent="1" source="5" target="64" edge="1">
                    <mxGeometry relative="1" as="geometry">
                        <Array as="points">
                            <mxPoint x="680" y="215"/>
                            <mxPoint x="680" y="700"/>
                            <mxPoint x="420" y="700"/>
                        </Array>
                    </mxGeometry>
                </mxCell>
                <mxCell id="5" value="Пришел пакет?" style="rhombus;whiteSpace=wrap;html=1;strokeColor=#000000;strokeWidth=3;fontFamily=Helvetica;fontSize=17;fontColor=#000000;fillColor=#f5f5f5;gradientColor=none;" parent="1" vertex="1">
                    <mxGeometry x="330" y="150" width="180" height="130" as="geometry"/>
                </mxCell>
                <mxCell id="12" value="Да" style="text;html=1;strokeColor=none;fillColor=none;align=center;verticalAlign=middle;whiteSpace=wrap;rounded=0;strokeWidth=3;fontFamily=Helvetica;fontSize=20;fontColor=#000000;" parent="1" vertex="1">
                    <mxGeometry x="420" y="280" width="60" height="30" as="geometry"/>
                </mxCell>
                <mxCell id="73" style="edgeStyle=none;html=1;exitX=0.5;exitY=1;exitDx=0;exitDy=0;entryX=0;entryY=0.5;entryDx=0;entryDy=0;fontFamily=Helvetica;fontSize=12;fontColor=default;strokeColor=#000000;strokeWidth=3;endArrow=none;endFill=0;rounded=0;" parent="1" source="24" edge="1">
                    <mxGeometry relative="1" as="geometry">
                        <mxPoint x="470" y="620" as="targetPoint"/>
                        <Array as="points">
                            <mxPoint x="420" y="620"/>
                        </Array>
                    </mxGeometry>
                </mxCell>
                <mxCell id="24" value="Интерфейс" style="rhombus;whiteSpace=wrap;html=1;strokeColor=#000000;strokeWidth=3;fontFamily=Helvetica;fontSize=20;fontColor=#000000;fillColor=#f5f5f5;gradientColor=none;" parent="1" vertex="1">
                    <mxGeometry x="350" y="310" width="140" height="100" as="geometry"/>
                </mxCell>
                <mxCell id="64" value="Конец" style="ellipse;whiteSpace=wrap;html=1;strokeColor=#000000;strokeWidth=3;fontFamily=Helvetica;fontSize=20;fontColor=#000000;fillColor=#f5f5f5;gradientColor=none;" parent="1" vertex="1">
                    <mxGeometry x="360" y="730" width="120" height="80" as="geometry"/>
                </mxCell>
                <mxCell id="74" style="edgeStyle=none;shape=connector;rounded=0;html=1;exitX=0;exitY=0.5;exitDx=0;exitDy=0;labelBackgroundColor=default;strokeColor=#000000;strokeWidth=3;fontFamily=Helvetica;fontSize=12;fontColor=default;endArrow=none;endFill=0;" parent="1" source="69" edge="1">
                    <mxGeometry relative="1" as="geometry">
                        <mxPoint x="420" y="460" as="targetPoint"/>
                    </mxGeometry>
                </mxCell>
                <mxCell id="84" style="edgeStyle=none;shape=connector;rounded=0;html=1;exitX=1;exitY=0.5;exitDx=0;exitDy=0;entryX=0;entryY=0.5;entryDx=0;entryDy=0;labelBackgroundColor=default;strokeColor=#000000;strokeWidth=3;fontFamily=Helvetica;fontSize=20;fontColor=#000000;endArrow=none;endFill=0;" parent="1" source="69" target="81" edge="1">
                    <mxGeometry relative="1" as="geometry"/>
                </mxCell>
                <mxCell id="69" value="RS-485-2" style="rounded=0;whiteSpace=wrap;html=1;fillColor=#f5f5f5;gradientColor=none;strokeColor=#000000;strokeWidth=3;fontColor=#000000;fontSize=20;" parent="1" vertex="1">
                    <mxGeometry x="440" y="430" width="120" height="60" as="geometry"/>
                </mxCell>
                <mxCell id="75" style="edgeStyle=none;shape=connector;rounded=0;html=1;exitX=0;exitY=0.5;exitDx=0;exitDy=0;labelBackgroundColor=default;strokeColor=#000000;strokeWidth=3;fontFamily=Helvetica;fontSize=12;fontColor=default;endArrow=none;endFill=0;" parent="1" edge="1">
                    <mxGeometry relative="1" as="geometry">
                        <mxPoint x="420" y="540" as="targetPoint"/>
                        <mxPoint x="470" y="540" as="sourcePoint"/>
                    </mxGeometry>
                </mxCell>
                <mxCell id="86" style="edgeStyle=none;shape=connector;rounded=0;html=1;exitX=1;exitY=0.5;exitDx=0;exitDy=0;entryX=0;entryY=0.5;entryDx=0;entryDy=0;labelBackgroundColor=default;strokeColor=#000000;strokeWidth=3;fontFamily=Helvetica;fontSize=20;fontColor=#000000;endArrow=none;endFill=0;" parent="1" source="76" target="82" edge="1">
                    <mxGeometry relative="1" as="geometry"/>
                </mxCell>
                <mxCell id="76" value="RS-485-3" style="rounded=0;whiteSpace=wrap;html=1;fillColor=#f5f5f5;gradientColor=none;strokeColor=#000000;strokeWidth=3;fontColor=#000000;fontSize=20;" parent="1" vertex="1">
                    <mxGeometry x="440" y="510" width="120" height="60" as="geometry"/>
                </mxCell>
                <mxCell id="87" style="edgeStyle=none;shape=connector;rounded=0;html=1;exitX=1;exitY=0.5;exitDx=0;exitDy=0;entryX=0;entryY=0.5;entryDx=0;entryDy=0;labelBackgroundColor=default;strokeColor=#000000;strokeWidth=3;fontFamily=Helvetica;fontSize=20;fontColor=#000000;endArrow=none;endFill=0;" parent="1" source="77" target="83" edge="1">
                    <mxGeometry relative="1" as="geometry"/>
                </mxCell>
                <mxCell id="77" value="Ethernet" style="rounded=0;whiteSpace=wrap;html=1;fillColor=#f5f5f5;gradientColor=none;strokeColor=#000000;strokeWidth=3;fontColor=#000000;fontSize=20;" parent="1" vertex="1">
                    <mxGeometry x="440" y="590" width="120" height="60" as="geometry"/>
                </mxCell>
                <mxCell id="81" value="1" style="ellipse;whiteSpace=wrap;html=1;fillColor=#f5f5f5;gradientColor=none;strokeColor=#000000;strokeWidth=3;fontColor=#000000;fontSize=20;" parent="1" vertex="1">
                    <mxGeometry x="600" y="430" width="60" height="60" as="geometry"/>
                </mxCell>
                <mxCell id="82" value="2" style="ellipse;whiteSpace=wrap;html=1;fillColor=#f5f5f5;gradientColor=none;strokeColor=#000000;strokeWidth=3;fontColor=#000000;fontSize=20;" parent="1" vertex="1">
                    <mxGeometry x="600" y="510" width="60" height="60" as="geometry"/>
                </mxCell>
                <mxCell id="83" value="1" style="ellipse;whiteSpace=wrap;html=1;fillColor=#f5f5f5;gradientColor=none;strokeColor=#000000;strokeWidth=3;fontColor=#000000;fontSize=20;" parent="1" vertex="1">
                    <mxGeometry x="600" y="590" width="60" height="60" as="geometry"/>
                </mxCell>
                <mxCell id="89" value="Нет" style="text;html=1;strokeColor=none;fillColor=none;align=center;verticalAlign=middle;whiteSpace=wrap;rounded=0;strokeWidth=3;fontFamily=Helvetica;fontSize=20;fontColor=#000000;" parent="1" vertex="1">
                    <mxGeometry x="500" y="180" width="60" height="30" as="geometry"/>
                </mxCell>
            </root>
        </mxGraphModel>
    </diagram>
</mxfile>